<svg id="visual" viewBox="0 0 960 540" width="960" height="540" xmlns="http://www.w3.org/2000/svg" xmlns:xlink="http://www.w3.org/1999/xlink" version="1.1"><rect x="0" y="0" width="960" height="540" fill="#001322"></rect><path d="M0 355L22.8 371.7C45.7 388.3 91.3 421.7 137 429C182.7 436.3 228.3 417.7 274 405.5C319.7 393.3 365.3 387.7 411.2 387.3C457 387 503 392 548.8 403.2C594.7 414.3 640.3 431.7 686 430.5C731.7 429.3 777.3 409.7 823 392.7C868.7 375.7 914.3 361.3 937.2 354.2L960 347L960 541L937.2 541C914.3 541 868.7 541 823 541C777.3 541 731.7 541 686 541C640.3 541 594.7 541 548.8 541C503 541 457 541 411.2 541C365.3 541 319.7 541 274 541C228.3 541 182.7 541 137 541C91.3 541 45.7 541 22.8 541L0 541Z" fill="#0066FF" stroke-linecap="round" stroke-linejoin="miter"></path></svg>