<svg id="visual" viewBox="0 0 960 540" width="960" height="540" xmlns="http://www.w3.org/2000/svg" xmlns:xlink="http://www.w3.org/1999/xlink" version="1.1"><rect x="0" y="0" width="960" height="540" fill="#001322"></rect><path d="M0 456L26.7 462.5C53.3 469 106.7 482 160 486.8C213.3 491.7 266.7 488.3 320 486.5C373.3 484.7 426.7 484.3 480 489.2C533.3 494 586.7 504 640 498.3C693.3 492.7 746.7 471.3 800 464.2C853.3 457 906.7 464 933.3 467.5L960 471L960 541L933.3 541C906.7 541 853.3 541 800 541C746.7 541 693.3 541 640 541C586.7 541 533.3 541 480 541C426.7 541 373.3 541 320 541C266.7 541 213.3 541 160 541C106.7 541 53.3 541 26.7 541L0 541Z" fill="#0066FF" stroke-linecap="round" stroke-linejoin="miter"></path></svg>